{
  "accessors": [
    {
      "bufferView": 2,
      "componentType": 5126,
      "count": 56,
      "max": [
        12947.3671875,
        -426.442626953125,
        215.43138122558594
      ],
      "min": [
        12109.8046875,
        -1277.96044921875,
        -582.363525390625
      ],
      "type": "VEC3"
    },
    {
      "bufferView": 2,
      "byteOffset": 672,
      "componentType": 5126,
      "count": 56,
      "max": [
        1,
        1,
        1
      ],
      "min": [
        -1,
        -1,
        -1
      ],
      "type": "VEC3"
    },
    {
      "bufferView": 3,
      "componentType": 5126,
      "count": 56,
      "max": [
        1,
        0,
        0,
        1
      ],
      "min": [
        0,
        0,
        0,
        -1
      ],
      "type": "VEC4"
    },
    {
      "bufferView": 1,
      "componentType": 5126,
      "count": 56,
      "max": [
        1,
        1
      ],
      "min": [
        0,
        0
      ],
      "type": "VEC2"
    },
    {
      "bufferView": 0,
      "componentType": 5125,
      "count": 84,
      "max": [
        55
      ],
      "min": [
        0
      ],
      "type": "SCALAR"
    },
    {
      "bufferView": 2,
      "byteOffset": 1344,
      "componentType": 5126,
      "count": 74,
      "max": [
        44.650714874267578,
        43.972370147705078,
        7791.7109375
      ],
      "min": [
        -44.650714874267578,
        -43.972679138183594,
        0
      ],
      "type": "VEC3"
    },
    {
      "bufferView": 2,
      "byteOffset": 2232,
      "componentType": 5126,
      "count": 74,
      "max": [
        1,
        0.98480802774429321,
        1
      ],
      "min": [
        -1,
        -0.98480808734893799,
        -1
      ],
      "type": "VEC3"
    },
    {
      "bufferView": 3,
      "byteOffset": 896,
      "componentType": 5126,
      "count": 74,
      "max": [
        0.98480814695358276,
        1,
        6.7162733152770215e-09,
        1
      ],
      "min": [
        -0.98480808734893799,
        -1,
        -6.716268874384923e-09,
        -1
      ],
      "type": "VEC4"
    },
    {
      "bufferView": 1,
      "byteOffset": 448,
      "componentType": 5126,
      "count": 74,
      "max": [
        1.0277777910232544,
        1
      ],
      "min": [
        0.007596135139465332,
        0
      ],
      "type": "VEC2"
    },
    {
      "bufferView": 0,
      "byteOffset": 336,
      "componentType": 5125,
      "count": 204,
      "max": [
        73
      ],
      "min": [
        0
      ],
      "type": "SCALAR"
    },
    {
      "bufferView": 2,
      "byteOffset": 3120,
      "componentType": 5126,
      "count": 151,
      "max": [
        193.09869384765625,
        193.09834289550781,
        8160.0517578125
      ],
      "min": [
        -193.09869384765625,
        -193.09904479980469,
        7773.8544921875
      ],
      "type": "VEC3"
    },
    {
      "bufferView": 2,
      "byteOffset": 4932,
      "componentType": 5126,
      "count": 151,
      "max": [
        1,
        1,
        1
      ],
      "min": [
        -1,
        -1,
        -1
      ],
      "type": "VEC3"
    },
    {
      "bufferView": 3,
      "byteOffset": 2080,
      "componentType": 5126,
      "count": 151,
      "max": [
        1,
        0.098463661968708038,
        1,
        1
      ],
      "min": [
        -1,
        -0.09846360981464386,
        -1,
        1
      ],
      "type": "VEC4"
    },
    {
      "bufferView": 1,
      "byteOffset": 1040,
      "componentType": 5126,
      "count": 151,
      "max": [
        1.0000001192092896,
        1
      ],
      "min": [
        0,
        5.9604644775390625e-08
      ],
      "type": "VEC2"
    },
    {
      "bufferView": 0,
      "byteOffset": 1152,
      "componentType": 5125,
      "count": 672,
      "max": [
        150
      ],
      "min": [
        0
      ],
      "type": "SCALAR"
    },
    {
      "bufferView": 2,
      "byteOffset": 6744,
      "componentType": 5126,
      "count": 6,
      "max": [
        13.92779541015625,
        12.106475830078125,
        7795.8857421875
      ],
      "min": [
        -1020.92724609375,
        -4.508559504756704e-05,
        6976.419921875
      ],
      "type": "VEC3"
    },
    {
      "bufferView": 2,
      "byteOffset": 6816,
      "componentType": 5126,
      "count": 6,
      "max": [
        1.7393084750239041e-09,
        1,
        -1.6292068494294654e-07
      ],
      "min": [
        1.5107777056016635e-15,
        -1,
        -1.6766401245149609e-07
      ],
      "type": "VEC3"
    },
    {
      "bufferView": 3,
      "byteOffset": 4496,
      "componentType": 5126,
      "count": 6,
      "max": [
        1,
        1.1574988133234397e-14,
        -6.177366884685398e-08,
        1
      ],
      "min": [
        1,
        -1.7393189111203355e-09,
        -6.177366884685398e-08,
        -1
      ],
      "type": "VEC4"
    },
    {
      "bufferView": 1,
      "byteOffset": 2248,
      "componentType": 5126,
      "count": 6,
      "max": [
        0.98263967037200928,
        1.0022487640380859
      ],
      "min": [
        -0.017360299825668335,
        0.0022487342357635498
      ],
      "type": "VEC2"
    },
    {
      "bufferView": 0,
      "byteOffset": 3840,
      "componentType": 5125,
      "count": 6,
      "max": [
        5
      ],
      "min": [
        0
      ],
      "type": "SCALAR"
    },
    {
      "bufferView": 2,
      "byteOffset": 6888,
      "componentType": 5126,
      "count": 22,
      "max": [
        13.92779541015625,
        12.106475830078125,
        7795.8857421875
      ],
      "min": [
        -1020.92724609375,
        -4.508559504756704e-05,
        6976.419921875
      ],
      "type": "VEC3"
    },
    {
      "bufferView": 2,
      "byteOffset": 7152,
      "componentType": 5126,
      "count": 22,
      "max": [
        0.99893593788146973,
        0,
        0.99994629621505737
      ],
      "min": [
        -0.62995994091033936,
        0,
        -0.77662777900695801
      ],
      "type": "VEC3"
    },
    {
      "bufferView": 3,
      "byteOffset": 4592,
      "componentType": 5126,
      "count": 22,
      "max": [
        0,
        0,
        0,
        1
      ],
      "min": [
        0,
        0,
        0,
        1
      ],
      "type": "VEC4"
    },
    {
      "bufferView": 1,
      "byteOffset": 2296,
      "componentType": 5126,
      "count": 22,
      "max": [
        0.98263967037200928,
        1.0022487640380859
      ],
      "min": [
        -0.017360299825668335,
        0.0022487342357635498
      ],
      "type": "VEC2"
    },
    {
      "bufferView": 0,
      "byteOffset": 3864,
      "componentType": 5125,
      "count": 36,
      "max": [
        21
      ],
      "min": [
        0
      ],
      "type": "SCALAR"
    },
    {
      "bufferView": 4,
      "componentType": 5126,
      "count": 62,
      "max": [
        2.5
      ],
      "min": [
        0
      ],
      "type": "SCALAR"
    },
    {
      "bufferView": 5,
      "componentType": 5126,
      "count": 62,
      "max": [
        306.78125,
        -6.0532131195068359,
        -3802.24609375
      ],
      "min": [
        306.78125,
        -6.0532131195068359,
        -10443.40625
      ],
      "type": "VEC3"
    }
  ],
  "animations": [
    {
      "channels": [
        {
          "sampler": 0,
          "target": {
            "node": 12,
            "path": "translation"
          }
        }
      ],
      "name": "Take 001",
      "samplers": [
        {
          "input": 25,
          "interpolation": "LINEAR",
          "output": 26
        }
      ]
    }
  ],
  "asset": {
    "extras": {
      "author": "Anthony Yanez (https://sketchfab.com/paulyanez)",
      "license": "CC-BY-4.0 (http://creativecommons.org/licenses/by/4.0/)",
      "source": "https://sketchfab.com/models/3cd01b9f9ced4e509e3180378b666e22",
      "title": "Flagpole (Super Mario Bros)"
    },
    "generator": "Sketchfab-3.53.2",
    "version": "2.0"
  },
  "bufferViews": [
    {
      "buffer": 0,
      "byteLength": 4008,
      "byteOffset": 0,
      "name": "floatBufferViews",
      "target": 34963
    },
    {
      "buffer": 0,
      "byteLength": 2472,
      "byteOffset": 4008,
      "byteStride": 8,
      "name": "floatBufferViews",
      "target": 34962
    },
    {
      "buffer": 0,
      "byteLength": 7416,
      "byteOffset": 6480,
      "byteStride": 12,
      "name": "floatBufferViews",
      "target": 34962
    },
    {
      "buffer": 0,
      "byteLength": 4944,
      "byteOffset": 13896,
      "byteStride": 16,
      "name": "floatBufferViews",
      "target": 34962
    },
    {
      "buffer": 0,
      "byteLength": 248,
      "byteOffset": 18840,
      "name": "floatBufferViews"
    },
    {
      "buffer": 0,
      "byteLength": 744,
      "byteOffset": 19088,
      "byteStride": 12,
      "name": "floatBufferViews"
    }
  ],
  "buffers": [
    {
      "byteLength": 19832,
      "uri": "scene.bin"
    }
  ],
  "images": [
    {
      "uri": "textures/15_-_Default_baseColor.png"
    }
  ],
  "materials": [
    {
      "doubleSided": true,
      "emissiveFactor": [
        0,
        0,
        0
      ],
      "name": "21_-_Default",
      "pbrMetallicRoughness": {
        "baseColorFactor": [
          0.45490199999999997,
          0.105882,
          0,
          1
        ],
        "metallicFactor": 0.88586128050000001,
        "roughnessFactor": 0.52877286589999994
      }
    },
    {
      "doubleSided": true,
      "emissiveFactor": [
        0,
        0,
        0
      ],
      "name": "20_-_Default",
      "pbrMetallicRoughness": {
        "baseColorFactor": [
          0.235294,
          0.52549000000000001,
          0,
          1
        ],
        "metallicFactor": 0.27610518290000002,
        "roughnessFactor": 0.89297135959999996
      }
    },
    {
      "doubleSided": true,
      "emissiveFactor": [
        0,
        0,
        0
      ],
      "name": "19_-_Default",
      "pbrMetallicRoughness": {
        "baseColorFactor": [
          0.087564621400000001,
          1,
          0,
          1
        ],
        "metallicFactor": 0.89805640239999995,
        "roughnessFactor": 0.89297135959999996
      }
    },
    {
      "doubleSided": true,
      "emissiveFactor": [
        0,
        0,
        0
      ],
      "name": "15_-_Default",
      "pbrMetallicRoughness": {
        "baseColorFactor": [
          1,
          1,
          1,
          1
        ],
        "baseColorTexture": {
          "index": 0,
          "texCoord": 0
        },
        "metallicFactor": 0,
        "roughnessFactor": 0.89297135959999996
      }
    }
  ],
  "meshes": [
    {
      "name": "Base_21 - Default_0",
      "primitives": [
        {
          "attributes": {
            "NORMAL": 1,
            "POSITION": 0,
            "TANGENT": 2,
            "TEXCOORD_0": 3
          },
          "indices": 4,
          "material": 0,
          "mode": 4
        }
      ]
    },
    {
      "name": "Pole_20 - Default_0",
      "primitives": [
        {
          "attributes": {
            "NORMAL": 6,
            "POSITION": 5,
            "TANGENT": 7,
            "TEXCOORD_0": 8
          },
          "indices": 9,
          "material": 1,
          "mode": 4
        }
      ]
    },
    {
      "name": "Pole_19 - Default_0",
      "primitives": [
        {
          "attributes": {
            "NORMAL": 11,
            "POSITION": 10,
            "TANGENT": 12,
            "TEXCOORD_0": 13
          },
          "indices": 14,
          "material": 2,
          "mode": 4
        }
      ]
    },
    {
      "name": "Flag_15 - Default_0",
      "primitives": [
        {
          "attributes": {
            "NORMAL": 16,
            "POSITION": 15,
            "TANGENT": 17,
            "TEXCOORD_0": 18
          },
          "indices": 19,
          "material": 3,
          "mode": 4
        }
      ]
    },
    {
      "name": "Flag_20 - Default_0",
      "primitives": [
        {
          "attributes": {
            "NORMAL": 21,
            "POSITION": 20,
            "TANGENT": 22,
            "TEXCOORD_0": 23
          },
          "indices": 24,
          "material": 1,
          "mode": 4
        }
      ]
    }
  ],
  "nodes": [
    {
      "children": [
        1
      ],
      "name": "RootNode (gltf orientation matrix)",
      "rotation": [
        -0.70710678118654746,
        -0,
        -0,
        0.70710678118654757
      ]
    },
    {
      "children": [
        2
      ],
      "name": "RootNode (model correction matrix)"
    },
    {
      "children": [
        3
      ],
      "matrix": [
        1,
        0,
        0,
        0,
        0,
        0,
        1,
        0,
        0,
        -1,
        0,
        0,
        0,
        0,
        0,
        1
      ],
      "name": "Flagpole.FBX"
    },
    {
      "children": [
        4
      ],
      "name": ""
    },
    {
      "children": [
        5
      ],
      "name": "RootNode"
    },
    {
      "children": [
        6,
        9,
        12
      ],
      "name": "Flag Pole",
      "rotation": [
        -0.7071068286895752,
        -0,
        0,
        0.7071068286895752
      ],
      "translation": [
        146442.9375,
        5193.6123046875,
        -15.722747802734375
      ]
    },
    {
      "children": [
        7
      ],
      "name": "Base",
      "rotation": [
        0.7071068286895752,
        0,
        0,
        0.70710670948028564
      ],
      "translation": [
        -12233.25,
        -790.7952880859375,
        -3079.844970703125
      ]
    },
    {
      "children": [
        8
      ],
      "matrix": [
        1,
        0,
        -0,
        0,
        0,
        1,
        0,
        0,
        0,
        0,
        1,
        0,
        0,
        -9.8946460639126599e-05,
        -607.32904052734375,
        1
      ],
      "name": ""
    },
    {
      "mesh": 0,
      "name": "Base_21 - Default_0"
    },
    {
      "children": [
        10,
        11
      ],
      "name": "Pole",
      "translation": [
        306.78125,
        0.0003452301025390625,
        -3802.24609375
      ]
    },
    {
      "mesh": 1,
      "name": "Pole_20 - Default_0"
    },
    {
      "mesh": 2,
      "name": "Pole_19 - Default_0"
    },
    {
      "children": [
        13,
        14
      ],
      "name": "Flag",
      "translation": [
        306.78125,
        -6.0532131195068359,
        -3802.24609375
      ]
    },
    {
      "mesh": 3,
      "name": "Flag_15 - Default_0"
    },
    {
      "mesh": 4,
      "name": "Flag_20 - Default_0"
    }
  ],
  "samplers": [
    {
      "magFilter": 9729,
      "minFilter": 9987,
      "wrapS": 10497,
      "wrapT": 10497
    }
  ],
  "scene": 0,
  "scenes": [
    {
      "name": "OSG_Scene",
      "nodes": [
        0
      ]
    }
  ],
  "textures": [
    {
      "sampler": 0,
      "source": 0
    }
  ]
}

